<svg width="96" height="81" viewBox="0 0 96 81" fill="none" xmlns="http://www.w3.org/2000/svg">
<path d="M5.30824 73.7898C5.30824 72.6587 6.02379 72.0124 7.0071 72.0124C7.9581 72.0124 8.52592 72.6172 8.52592 73.6559V78H9.90625V73.4897C9.90625 71.7216 8.93679 70.8168 7.47798 70.8168C6.37464 70.8168 5.70987 71.2969 5.37749 72.0632H5.28977V68.5455H3.92791V78H5.30824V73.7898ZM14.4143 78.1431C15.9609 78.1431 17.055 77.3814 17.3689 76.2273L16.0624 75.9918C15.8131 76.6612 15.213 77.0028 14.4282 77.0028C13.2464 77.0028 12.4523 76.2365 12.4154 74.87H17.4566V74.3807C17.4566 71.8185 15.9239 70.8168 14.3174 70.8168C12.3415 70.8168 11.0397 72.3217 11.0397 74.5007C11.0397 76.7028 12.3231 78.1431 14.4143 78.1431ZM12.42 73.8359C12.4754 72.8295 13.2048 71.957 14.3266 71.957C15.3976 71.957 16.0993 72.7511 16.104 73.8359H12.42ZM19.9784 68.5455H18.5981V78H19.9784V68.5455ZM21.4454 80.6591H22.8257V76.8967H22.9088C23.1581 77.3491 23.6659 78.1385 24.9586 78.1385C26.6759 78.1385 27.9223 76.7628 27.9223 74.4684C27.9223 72.1694 26.6574 70.8168 24.9447 70.8168C23.629 70.8168 23.1535 71.62 22.9088 72.0586H22.7934V70.9091H21.4454V80.6591ZM22.798 74.4545C22.798 72.9727 23.4443 71.9893 24.6492 71.9893C25.9003 71.9893 26.5282 73.0465 26.5282 74.4545C26.5282 75.8764 25.8818 76.9613 24.6492 76.9613C23.4628 76.9613 22.798 75.9457 22.798 74.4545ZM35.1854 78.1431C36.7319 78.1431 37.826 77.3814 38.1399 76.2273L36.8335 75.9918C36.5842 76.6612 35.984 77.0028 35.1992 77.0028C34.0174 77.0028 33.2234 76.2365 33.1865 74.87H38.2276V74.3807C38.2276 71.8185 36.695 70.8168 35.0884 70.8168C33.1126 70.8168 31.8107 72.3217 31.8107 74.5007C31.8107 76.7028 33.0941 78.1431 35.1854 78.1431ZM33.1911 73.8359C33.2465 72.8295 33.9759 71.957 35.0977 71.957C36.1687 71.957 36.8704 72.7511 36.875 73.8359H33.1911ZM41.4327 78.157C42.6053 78.157 43.2655 77.5614 43.5286 77.0305H43.584V78H44.932V73.2912C44.932 71.2276 43.307 70.8168 42.1806 70.8168C40.8972 70.8168 39.7154 71.3338 39.2537 72.6264L40.551 72.9219C40.7541 72.4187 41.2712 71.9339 42.1991 71.9339C43.09 71.9339 43.5471 72.4002 43.5471 73.2035V73.2358C43.5471 73.739 43.03 73.7298 41.7559 73.8775C40.4125 74.0344 39.0368 74.3853 39.0368 75.9964C39.0368 77.3906 40.0847 78.157 41.4327 78.157ZM41.7328 77.049C40.9526 77.049 40.3894 76.6982 40.3894 76.0149C40.3894 75.2763 41.0449 75.0131 41.8436 74.907C42.2914 74.8469 43.3532 74.7269 43.5517 74.5284V75.4425C43.5517 76.2827 42.8823 77.049 41.7328 77.049ZM49.3674 78.1431C51.0432 78.1431 52.128 77.1367 52.2804 75.7564H50.937C50.7616 76.5227 50.166 76.9751 49.3766 76.9751C48.2087 76.9751 47.4562 76.0011 47.4562 74.4545C47.4562 72.9357 48.2225 71.9801 49.3766 71.9801C50.2538 71.9801 50.7893 72.5341 50.937 73.1989H52.2804C52.1327 71.7678 50.9647 70.8168 49.3535 70.8168C47.3546 70.8168 46.062 72.3217 46.062 74.4869C46.062 76.6243 47.3084 78.1431 49.3674 78.1431ZM54.7468 73.7898C54.7468 72.6587 55.4624 72.0124 56.4457 72.0124C57.3967 72.0124 57.9645 72.6172 57.9645 73.6559V78H59.3448V73.4897C59.3448 71.7216 58.3754 70.8168 56.9166 70.8168C55.8132 70.8168 55.1485 71.2969 54.8161 72.0632H54.7284V68.5455H53.3665V78H54.7468V73.7898ZM66.8341 78.1431C68.833 78.1431 70.1395 76.6797 70.1395 74.4869C70.1395 72.2802 68.833 70.8168 66.8341 70.8168C64.8352 70.8168 63.5287 72.2802 63.5287 74.4869C63.5287 76.6797 64.8352 78.1431 66.8341 78.1431ZM66.8387 76.9844C65.5323 76.9844 64.9229 75.8441 64.9229 74.4822C64.9229 73.125 65.5323 71.9709 66.8387 71.9709C68.136 71.9709 68.7453 73.125 68.7453 74.4822C68.7453 75.8441 68.136 76.9844 66.8387 76.9844ZM74.6003 70.9091H73.1461V69.2102H71.7658V70.9091H70.727V72.017H71.7658V76.2042C71.7611 77.4922 72.7444 78.1154 73.8339 78.0923C74.2725 78.0877 74.568 78.0046 74.7295 77.9446L74.4802 76.8043C74.3879 76.8228 74.2171 76.8643 73.9955 76.8643C73.5477 76.8643 73.1461 76.7166 73.1461 75.918V72.017H74.6003V70.9091ZM77.2698 73.7898C77.2698 72.6587 77.9854 72.0124 78.9687 72.0124C79.9197 72.0124 80.4875 72.6172 80.4875 73.6559V78H81.8679V73.4897C81.8679 71.7216 80.8984 70.8168 79.4396 70.8168C78.3362 70.8168 77.6715 71.2969 77.3391 72.0632H77.2514V68.5455H75.8895V78H77.2698V73.7898ZM86.3759 78.1431C87.9225 78.1431 89.0166 77.3814 89.3305 76.2273L88.024 75.9918C87.7747 76.6612 87.1746 77.0028 86.3898 77.0028C85.208 77.0028 84.4139 76.2365 84.377 74.87H89.4182V74.3807C89.4182 71.8185 87.8855 70.8168 86.279 70.8168C84.3031 70.8168 83.0013 72.3217 83.0013 74.5007C83.0013 76.7028 84.2847 78.1431 86.3759 78.1431ZM84.3816 73.8359C84.437 72.8295 85.1664 71.957 86.2882 71.957C87.3592 71.957 88.0609 72.7511 88.0656 73.8359H84.3816ZM90.5597 78H91.94V73.6697C91.94 72.7418 92.6556 72.0724 93.6343 72.0724C93.9205 72.0724 94.2437 72.1232 94.3545 72.1555V70.8352C94.216 70.8168 93.9436 70.8029 93.7682 70.8029C92.9372 70.8029 92.2263 71.2738 91.9677 72.0355H91.8939V70.9091H90.5597V78Z" fill="#6951FC"/>
<path d="M3 62H15.6364V43.8182H32.3636V62H45V15.4545H32.3636V33.6364H15.6364V15.4545H3V62ZM92.8909 38.7273C92.8909 23.1818 82.8909 14.8182 70.2545 14.8182C57.5273 14.8182 47.6182 23.1818 47.6182 38.7273C47.6182 54.1818 57.5273 62.6364 70.2545 62.6364C82.8909 62.6364 92.8909 54.2727 92.8909 38.7273ZM79.8909 38.7273C79.8909 47.0909 76.5273 51.6364 70.2545 51.6364C63.9818 51.6364 60.6182 47.0909 60.6182 38.7273C60.6182 30.3636 63.9818 25.8182 70.2545 25.8182C76.5273 25.8182 79.8909 30.3636 79.8909 38.7273Z" fill="url(#paint0_linear)"/>
<defs>
<linearGradient id="paint0_linear" x1="4" y1="14.5" x2="90.5" y2="62" gradientUnits="userSpaceOnUse">
<stop offset="0.046875" stop-color="#FFDB7A"/>
<stop offset="0.463542" stop-color="#EC9B6E"/>
<stop offset="1" stop-color="#6951FC"/>
</linearGradient>
</defs>
</svg>
